<svg viewBox="0 0 70 70" xmlns="http://www.w3.org/2000/svg"><path d="m38.7 6.7c-.2 0-.3-.1-.3-.3s.1-.4.3-.4l2-.2c.1 0 .2 0 .3.1v.2c0 .1 0 .2-.1.3s-.1.1-.2.1zm2-.8-2.1.2c-.1 0-.2.1-.2.3 0 .1.1.2.3.2l2-.2c.1 0 .2-.1.2-.3 0-.1 0-.1-.1-.2 0 0 0 0-.1 0zm-2 .6h-.1s-.1-.1-.1-.1v-.1s.1-.1.1-.1l2-.2h.1s.1.1.1.1v.1s-.1.1-.1.1zm2-.4-2 .2v.1h.1l2-.2s0 0-.1-.1c.1 0 .1 0 0 0z" fill="#e6332a"/><path d="m41.9 6.5c-.2 0-.4-.2-.4-.4 0-.1 0-.2.1-.3s.2-.1.3-.2c.2 0 .4.1.5.4-.1.2-.3.4-.5.5zm0-.8c-.1 0-.2.1-.3.1-.1.1-.1.2-.1.2 0 .1.1.2.1.2.1.1.2.1.2.1.2 0 .3-.2.3-.4.1-.1-.1-.2-.2-.2zm0 .6c-.1 0-.1 0-.2-.1-.1 0-.1-.1-.1-.2s0-.1.1-.2c0-.1.1-.1.2-.1.1 0 .1 0 .2.1.1 0 .1.1.1.2s0 .1-.1.2c-.1 0-.1.1-.2.1zm0-.4c-.1 0-.1 0-.1.1s0 .1 0 .1 0 .1.1.1h.1s.1 0 .1-.1 0-.1 0-.1c-.1 0-.1-.1-.2-.1z" fill="#e6332a"/><g fill="#b5b6b5"><path d="m30.3 12.5c-.1 0-.1 0-.1-.1l-.2-1.2c0-.1 0-.1.1-.1s.1 0 .1.1l.1 1.2c.1 0 .1.1 0 .1"/><path d="m30.8 16.8c-.1 0-.1 0-.1-.1l-.4-2.7c0-.1 0-.1.1-.1s.1 0 .1.1l.3 2.6c.1.1 0 .2 0 .2"/><path d="m31.1 20.4c-.1 0-.1 0-.1-.1l-.3-2.5c0-.1 0-.1.1-.1s.1 0 .1.1l.3 2.5c.1 0 0 0-.1.1"/><path d="m51.1 17.3c-.1 0-.1 0-.1-.1l-.4-4.3c0-.1 0-.1.1-.1s.1 0 .1.1l.4 4.3c.1.1 0 .1-.1.1"/></g><path d="m32.7 5c-1.9.2-3.2 1.9-3 3.7l3.6 33.9c.2 1.9 1.9 3.2 3.7 3l13.7-1.4c1.9-.2 3.2-1.9 3-3.7l-3.6-33.9c-.2-1.9-1.9-3.2-3.7-3zm18 39.5-13.7 1.4c-2 .2-3.8-1.2-4-3.3l-3.5-33.8c-.2-2 1.2-3.8 3.3-4l13.7-1.4c2-.2 3.8 1.2 4 3.3l3.5 33.8c.2 2-1.3 3.8-3.3 4" fill="#e6332a"/><path d="m36.7 46.6c-2.2 0-4-1.6-4.3-3.9l-3.6-33.9c-.1-1.1.2-2.3.9-3.2s1.8-1.5 2.9-1.6l13.7-1.4c2.4-.2 4.5 1.5 4.7 3.8l3.6 33.9c.2 2.4-1.5 4.5-3.8 4.7l-13.7 1.4c-.1.2-.3.2-.4.2zm-3.9-40.9c-.7.1-1.4.4-1.8 1-.5.6-.7 1.3-.6 2l3.6 33.9c.1.7.4 1.4 1 1.8.6.5 1.3.7 2 .6l13.7-1.4c1.5-.2 2.6-1.5 2.4-3l-3.6-34c-.1-.7-.4-1.4-1-1.8-.6-.5-1.3-.7-2-.6z" fill="#e6332a"/><path d="m36.6 43.2c-.6 0-1.1-.2-1.5-.5-.5-.4-.8-1-.9-1.6l-3.4-32.2c-.1-.6.1-1.3.5-1.8s1-.8 1.6-.9l1.5-.2c.3 0 .6.2.7.5 0 .2.1.4.3.6.2.1.4.2.6.2l7.5-.8c.5 0 .8-.5.8-.9 0-.3.2-.6.5-.7l1.5-.2c.6-.1 1.3.1 1.8.5s.8 1 .9 1.6l3.4 32.2c.1.6-.1 1.3-.5 1.8s-1 .8-1.6.9l-13.5 1.4c0 .1-.1.1-.2.1zm-2-37c-.1 0-.1 0 0 0l-1.6.1c-.6.1-1.2.4-1.6.8-.4.5-.6 1.1-.5 1.7l3.4 32.2c.1.6.4 1.2.8 1.6.5.4 1.1.6 1.7.5l13.5-1.4c.6-.1 1.2-.4 1.6-.8.4-.5.6-1.1.5-1.7l-3.4-32.2c-.1-.6-.4-1.2-.8-1.6-.5-.4-1.1-.6-1.7-.5l-1.5.2c-.3 0-.5.3-.4.5.1.5-.3 1-.9 1.1l-7.5.8c-.3 0-.5 0-.7-.2s-.3-.4-.4-.6c-.1-.3-.3-.5-.5-.5zm2 36.8c-1.1 0-2-.8-2.1-1.9l-3.4-32.2c-.1-.6.1-1.1.5-1.6.4-.4.9-.7 1.4-.8l1.5-.2c.1 0 .2 0 .2.1.1.1.1.1.1.2.1.6.6 1.1 1.3 1l7.5-.8c.6-.1 1.1-.6 1-1.3 0-.1 0-.2.1-.2.1-.1.1-.1.2-.1l1.5-.2c.6 0 1.2.2 1.6.6s.7.9.8 1.4l3.4 32.2c.1.6-.1 1.1-.5 1.6-.4.4-.9.7-1.4.8l-13.5 1.4c-.1 0-.1 0-.2 0zm-2-36.5-1.6.1c-.5.1-1 .3-1.4.7-.3.4-.5 1-.4 1.5l3.4 32.2c.1 1.1 1.1 1.9 2.2 1.8l13.5-1.4c.5-.1 1-.3 1.4-.7.3-.4.5-1 .4-1.5l-3.4-32.2c-.1-.5-.3-1-.7-1.4-.4-.3-1-.5-1.5-.4l-1.5.2c-.1 0-.1 0-.1.1 0 0-.1.1 0 .2.1.7-.4 1.3-1.1 1.4l-7.5.8c-.7.1-1.3-.4-1.4-1.1 0-.1 0-.1-.1-.1-.1-.2-.2-.2-.2-.2z" fill="#e6332a"/><path d="m63.5 40.9c-1.6-2.4-3.6-1.9-4.4-1.6-.2.1-.5.1-.7-.1-1-.7-2-.6-2.7-.3-.3.1-.6.3-.8.5-.1 0-.1.1-.2.1-.2.1-.5.1-.8 0-1-.6-1.8-.4-2.5-.1-.2.1-.3.2-.5.3 0 0-.1 0-.1.1-.4.2-.9 0-1.1-.4l-2.1-4.8c-.6-1.2-1.8-1.4-2.7-1s-1.6 1.4-1 2.7c.9 2.1 3.7 8.3 4.5 10.2.1.3.1.7-.2.9-3 3.2 4.6 8 6 8.9l.3.3 1.4 2.6c.2.4.7.6 1.1.4l8.9-4c.4-.2.6-.6.5-1l-.9-2.9c0-.1 0-.3 0-.4.7-4.9-.6-8.2-2-10.4" fill="#fff"/><path d="m41.7 55.6c.3-.3.6-.5 1-.6.4 0 .8 0 1.1.1.7.3 1.1 1.1 1.3 2.4.2 1.5-.5 2.4-2 2.6-.4 0-.7-.1-1.1-.3-.1-.1-.2-.1-.2-.1l-.3-3c-.2-.4-.1-.7.2-1.1m3.9 4.5c.6-.7.8-1.6.7-2.7s-.4-2-1-2.8-1.4-1.1-2.5-1c-.5.1-.9.2-1.2.4s-.4.4-.5.7c-.1-.4-.2-.6-.3-.7s-.2-.1-.4-.1-.3.1-.4.2-.1.3-.2.6l1.2 11.4c0 .4.2.6.5.5.2 0 .4-.1.5-.3s.2-.4.3-.6l-.5-4.9.2.2c.3.2.7.3 1.1.3 1.1-.1 2-.5 2.5-1.2m-10.9-3.7c.3-.3.6-.5 1-.6.4 0 .8 0 1.1.1.7.3 1.1 1.1 1.3 2.4.2 1.5-.5 2.4-2 2.6-.4 0-.7-.1-1.1-.3-.1-.1-.2-.1-.2-.1l-.3-3c-.2-.5 0-.8.2-1.1m3.9 4.4c.6-.7.8-1.6.7-2.7s-.4-2-1-2.8-1.4-1.1-2.5-1c-.5.1-.9.2-1.2.4s-.4.4-.5.7c-.1-.4-.2-.6-.3-.7s-.2-.1-.4-.1-.3.1-.4.2-.1.3-.2.6l1.2 11.4c0 .4.2.6.5.5.2 0 .4-.1.5-.3s.2-.4.3-.6l-.5-4.9.2.2c.3.2.7.3 1.1.3 1.1-.1 2-.5 2.5-1.2m-9.5-5.4c.4 1 .6 1.6.6 1.7v.3s-.1.1-.3.1-.6 0-1.2 0-1 0-1.1-.1v-.1c0-.2.1-.8.4-1.8s.5-1.5.7-1.5c.2-.2.5.3.9 1.4m-2.4-1.8c-.3.8-.6 2.3-1 4.5-.3 2.3-.5 3.8-.4 4.6 0 .3.2.5.6.4.4 0 .6-.2.6-.4.1-2.5.2-3.8.4-4 0 0 .2-.1.4-.1h1.5c.7 0 1.2 0 1.3.1.1 0 .3.7.7 2.1.2.6.3 1 .4 1.2s.2.4.3.4c.1.1.3.1.5.1s.3-.1.4-.2.1-.2.1-.3 0-.1 0-.2c-1-3.7-2-6.4-2.9-8.1-.4-.7-.7-1.2-.9-1.4s-.5-.3-.7-.3c-.5.1-.9.6-1.3 1.6m-11.4 5.1c.1.9.5 1.4 1.2 1.6.2.1.6.1 1.2.2.5 0 .9.1 1.2.2s.4.3.4.6 0 .6-.2.8c-.2.3-.4.4-.8.4s-.7 0-1.1-.1-.6-.2-.7-.2c-.4 0-.6.3-.6.7s.3.6.8.8c.5.1 1.1.2 1.7.1.7-.1 1.2-.3 1.7-.7.4-.4.6-1.1.5-2-.1-.6-.3-1-.6-1.2-.4-.2-.9-.3-1.5-.4-.7-.1-1.1-.2-1.4-.3s-.4-.4-.5-.7.1-.5.3-.7.5-.3.8-.3.7 0 1.1.2.6.2.7.2h.2c.1 0 .2-.1.3-.2s.2-.3.2-.5c0-.4-.3-.6-.9-.8s-1.2-.2-1.8-.1-1.1.3-1.5.7c-.6.5-.8 1-.7 1.7m-5-2.3c.1 1.1.2 2.2.4 3.4s.3 2.1.4 2.6c.1.3.2.6.3.8s.2.5.4.7.4.4.6.5.5.1.9.1.7-.2 1.1-.6c.3-.4.5-.7.5-1.1-.1-.6-.3-.9-.7-.9-.2 0-.3.1-.4.2s-.2.2-.2.4c-.1.3-.2.5-.5.6-.2 0-.5-.5-.7-1.5-.1-.6-.3-1.4-.4-2.4s-.2-2.1-.3-3.3-.1-2-.2-2.3c0-.4-.3-.5-.8-.5-.2 0-.4.1-.5.2s-.1.4-.1.8.1 1.2.2 2.3m-2.3 2.9c.2.3.3.8.4 1.5s0 1.3-.1 2c-.1.2-.3.5-.5.7-.3.2-.5.4-.7.4-.9.1-1.4-.7-1.6-2.3-.1-1 0-1.6.2-2 .3-.4.7-.6 1.4-.7.4 0 .7.1.9.4m0-1.7c-.5-.1-.9-.1-1.3-.1-.9.1-1.6.5-2 1.2s-.6 1.7-.4 3.1c.2 2.4 1.1 3.5 2.7 3.3.8-.1 1.5-.4 1.9-1 .1.2.1.3.1.5 0 .1 0 .3.1.4s.2.1.3.1h.2c.6-.1.8-.2.8-.5l-.6-3.7c0-.3-.1-.7-.1-1.1l-.1-1.1c0-.1 0-.2 0-.3-.1-.8-.4-1.2-.8-1.1-.4 0-.6.1-.8.3" fill="#e6332a"/><path d="m24.4 37.1c.5-.1.9.1 1.1.4s.4.7.5 1.3.1.9.2 1.2l.2 2.8c0 .3.2.5.5.4.2 0 .4-.1.5-.2.2-.1.2-.3.2-.5s0-.7 0-1.4 0-1.2-.1-1.5c-.1-1-.3-1.8-.5-2.4-.5-1.1-1.3-1.5-2.6-1.4-.5.1-1.1.3-1.6.6-.1-.4-.1-.9-.2-1.7s-.2-1.4-.3-1.9-.3-.8-.6-.7c-.2 0-.4.1-.5.3-.1.1-.2.3-.2.6.2 1.4.4 3 .7 4.7s.6 3.5.9 5.4c0 .2.1.4.2.6s.2.2.4.2c.3 0 .5-.1.6-.2s.1-.3.1-.5c0-.1 0-.4 0-.8l-.5-3.8c-.3-1 .2-1.4 1-1.5m-9.3 3.5c.1 1.2.5 2.1 1 2.7.6.6 1.3.9 2.2.8.4 0 .8-.2 1.3-.4s.9-.5 1.2-.8.4-.6.4-.9c0-.1-.1-.2-.2-.3s-.2-.1-.4-.1c-.1 0-.5.2-1 .5-.6.3-.9.5-1.2.5-.6.1-1-.1-1.3-.4s-.5-.9-.5-1.7c-.1-.8.1-1.4.5-1.9s.9-.8 1.5-.9c.1 0 .3 0 .7.1s.6.1.6.1c.2 0 .4-.2.5-.4s.1-.5.1-.7-.2-.4-.6-.5-.8-.1-1.4-.1c-.6.1-1.1.3-1.7.6-.6.4-1 .9-1.3 1.5-.4.9-.5 1.6-.4 2.3m-6.7-2.4c0 1.2.1 2.2.2 2.9.1.8.3 1.6.7 2.5.2.5.5.8.8 1s.6.3 1 .3c.8-.1 1.5-.6 2.2-1.4.1.4.2.7.3 1s.3.4.5.3c.2 0 .4-.1.6-.2.1-.1.2-.2.2-.3s0-.2-.1-.3c-.2-.4-.4-1.4-.7-2.9s-.5-2.6-.5-3.4c0-.5-.2-.7-.6-.6-.2 0-.4.1-.5.3s-.2.4-.2.6c.1 1.1.3 2.5.6 4-.2.4-.4.8-.9 1.1-.4.4-.8.6-1.1.6-.2 0-.4-.4-.7-1.3s-.4-1.6-.5-2.3-.1-1.4-.1-2.3c0-.1-.1-.2-.1-.2s-.1-.1-.2-.1-.2-.1-.4 0c-.1 0-.3.1-.4.2 0 .1-.1.3-.1.5m-2.5 1.5c.2.3.3.8.4 1.5s0 1.3-.1 2c-.1.3-.2.5-.5.8-.3.2-.5.4-.7.4-.9.1-1.4-.7-1.6-2.3-.1-1 0-1.6.2-2 .3-.4.7-.6 1.3-.7.5-.1.8.1 1 .3m.1-1.6c-.5-.1-.9-.2-1.3-.1-.9.1-1.6.5-2 1.2s-.6 1.7-.4 3.1c.2 2.4 1.1 3.5 2.7 3.3.8-.1 1.5-.4 1.9-1 .1.2.1.3.1.5 0 .1 0 .3.1.4s.2.1.3.1h.2c.4-.2.7-.3.6-.6l-.6-3.7c0-.3-.1-.7-.1-1.1l-.1-1.1c0-.1 0-.2 0-.3-.1-.8-.4-1.1-.9-1.1-.2 0-.4.2-.5.4" fill="#e6332a"/><path d="m65.5 51.5.9 2.9c.1.4-.1.9-.5 1l-8.9 4c-.4.2-.9 0-1.1-.4l-1.4-2.6c-.1-.1-.2-.3-.3-.3-1.3-.8-8.9-5.7-6-8.9.2-.3.3-.6.2-.9-.8-1.9-3.6-8.1-4.5-10.2-.6-1.2.1-2.3 1-2.7s2.1-.2 2.7 1l2.1 4.8c.2.4.7.6 1.1.4 0 0 .1 0 .1-.1.1-.1.3-.2.5-.3.7-.3 1.5-.4 2.5.1.2.1.5.1.8 0 .1 0 .1-.1.2-.1.2-.2.5-.3.8-.5.7-.3 1.6-.4 2.7.3.2.1.5.2.7.1.8-.3 2.8-.8 4.4 1.6 1.5 2.2 2.7 5.5 2 10.2-.1.3-.1.5 0 .6m-4.3-13.9c-.9-.2-1.8 0-2.4.2-1.2-.7-2.5-.7-3.8-.2-.3.1-.5.3-.8.4-1.1-.5-2.3-.5-3.5 0 0 0 0 0-.1 0l-1.9-4.2c-.4-1-1.2-1.6-2.1-1.9-.8-.3-1.7-.2-2.5.2-.9.4-1.6 1.1-1.9 2s-.3 1.8.1 2.7l2.7 6 1.7 3.8c-.7.8-.9 1.8-.8 2.9.2 1.6 1.4 3.3 3.6 5.2 1.4 1.2 2.9 2.2 3.6 2.6l1.3 2.4c.6 1.1 1.9 1.5 3 1l8.9-4c1.1-.5 1.6-1.7 1.3-2.8l-.8-2.8c.6-4.2-.1-8-2.2-11.1-1.1-1.7-2.4-2.2-3.4-2.4" fill="#e6332a"/></svg>