<?xml version="1.0" encoding="UTF-8"?>
<svg width="24px" height="14px" viewBox="0 0 24 14" version="1.1" xmlns="http://www.w3.org/2000/svg" xmlns:xlink="http://www.w3.org/1999/xlink">
    <!-- Generator: Sketch 51.1 (57501) - http://www.bohemiancoding.com/sketch -->
    <title>Group 7</title>
    <desc>Created with Sketch.</desc>
    <defs></defs>
    <g id="phone" stroke="none" stroke-width="1" fill="none" fill-rule="evenodd">
        <g id="iPhone-8-navigation" transform="translate(-29.000000, -609.000000)">
            <g id="Group" transform="translate(29.000000, 236.000000)">
                <g id="Group-7" transform="translate(0.000000, 374.000000)">
                    <polygon id="Fill-1" fill="#4B4F53" points="0 13 24 13 24 5 0 5"></polygon>
                    <g id="Group-6" transform="translate(1.000000, 0.000000)">
                        <path d="M13,9 C13,10.104 12.104,11 11,11 C9.896,11 9,10.104 9,9 C9,7.896 9.896,7 11,7 C12.104,7 13,7.896 13,9" id="Fill-2" fill="#FFFFFF"></path>
                        <path d="M22,6 L0,6 L0,0 L18,0 C20.209,0 22,1.791 22,4 L22,6 Z" id="Stroke-4" stroke="#4B4F53" stroke-width="2" stroke-linecap="round"></path>
                    </g>
                </g>
            </g>
        </g>
    </g>
</svg>