<?xml version="1.0" encoding="UTF-8"?>
<svg width="24px" height="14px" viewBox="0 0 24 14" version="1.1" xmlns="http://www.w3.org/2000/svg" xmlns:xlink="http://www.w3.org/1999/xlink">
    <!-- Generator: Sketch 51.1 (57501) - http://www.bohemiancoding.com/sketch -->
    <title>Group 7</title>
    <desc>Created with Sketch.</desc>
    <defs></defs>
    <g id="phone" stroke="none" stroke-width="1" fill="none" fill-rule="evenodd">
        <g id="iPhone-8-navigation" transform="translate(-28.000000, -556.000000)">
            <g id="Group" transform="translate(29.000000, 236.000000)">
                <g id="Group-7" transform="translate(0.000000, 321.000000)">
                    <path d="M22,12 L0,12 L0,0 L18,0 C20.209,0 22,1.791 22,4 L22,12 Z" id="Stroke-1" stroke="#4B4F53" stroke-width="2" stroke-linecap="round"></path>
                    <path d="M13,5 L6,5 C5.447,5 5,4.553 5,4 C5,3.447 5.447,3 6,3 L13,3 C13.553,3 14,3.447 14,4 C14,4.553 13.553,5 13,5" id="Fill-3" fill="#4B4F53"></path>
                    <path d="M16,9 L6,9 C5.447,9 5,8.553 5,8 C5,7.447 5.447,7 6,7 L16,7 C16.553,7 17,7.447 17,8 C17,8.553 16.553,9 16,9" id="Fill-5" fill="#4B4F53"></path>
                </g>
            </g>
        </g>
    </g>
</svg>