<?xml version="1.0" encoding="utf-8"?>
<!-- Generator: Adobe Illustrator 24.0.0, SVG Export Plug-In . SVG Version: 6.00 Build 0)  -->
<svg version="1.2" baseProfile="tiny" id="Ebene_1" xmlns="http://www.w3.org/2000/svg" xmlns:xlink="http://www.w3.org/1999/xlink"
	 x="0px" y="0px" viewBox="0 0 24 24" xml:space="preserve">
<g>
	<path fill="#47731B" d="M9.2,13.2L7,15.4H5c-1,0-2,0.4-2.7,1.1c-1.5,1.5-1.5,3.9,0,5.4c1.5,1.5,3.9,1.5,5.4,0
		c0.7-0.7,1.1-1.7,1.1-2.7v-2L11,15c-0.3-0.2-0.7-0.5-1-0.8C9.7,13.9,9.4,13.6,9.2,13.2z M5.9,20.1c-0.5,0.5-1.3,0.5-1.8,0
		c-0.5-0.5-0.5-1.3,0-1.8c0.5-0.5,1.3-0.5,1.8,0C6.4,18.8,6.4,19.6,5.9,20.1z"/>
	<path fill="#47731B" d="M13.1,11.1C12,10,11.2,8.7,10.6,7.3c-0.3-0.9-0.6-1.7-0.7-2.6c-1.7,2.7-1.4,6.3,1,8.7c2.3,2.3,6,2.7,8.7,1
		c-0.9-0.1-1.8-0.4-2.6-0.7C15.5,13,14.2,12.1,13.1,11.1z"/>
	<path fill="#47731B" d="M20.8,3.4c-1.4-1.4-3.2-2-4.9-2c-1.7,0-3.4,0.6-4.8,1.9c0,2.6,1.1,5.1,2.9,6.9s4.3,2.9,6.9,2.9
		C23.5,10.4,23.5,6.1,20.8,3.4z"/>
</g>
</svg>
