<?xml version="1.0" encoding="UTF-8"?>
<svg width="24px" height="24px" viewBox="0 0 24 24" version="1.1" xmlns="http://www.w3.org/2000/svg" xmlns:xlink="http://www.w3.org/1999/xlink">
    <!-- Generator: Sketch 51.1 (57501) - http://www.bohemiancoding.com/sketch -->
    <title>Group 15</title>
    <desc>Created with Sketch.</desc>
    <defs></defs>
    <g id="phone" stroke="none" stroke-width="1" fill="none" fill-rule="evenodd">
        <g id="iPhone-8-navigation" transform="translate(-29.000000, -343.000000)">
            <g id="Group" transform="translate(29.000000, 236.000000)">
                <g id="Group-15" transform="translate(0.000000, 107.000000)">
                    <path d="M24,12 C24,18.63 18.63,24 12,24 C5.37,24 0,18.63 0,12 L0,0 L12,0 C18.63,0 24,5.37 24,12" id="Fill-1" fill="#FBB03B"></path>
                    <path d="M16,11 C16,13.209 14.209,15 12,15 C9.791,15 8,13.209 8,11 C8,8.791 9.791,7 12,7 C14.209,7 16,8.791 16,11" id="Fill-3" fill="#FFFFFF"></path>
                    <path d="M12,9 C10.9,9 10,10.439 10,12.2 L10,13.8 C10,13.971 10.009,15.139 10.025,15.303 C10.125,16.285 11.013,17 12,17 C12.987,17 13.875,16.285 13.975,15.303 C13.991,15.139 14,13.971 14,13.8 L14,12.2 C14,10.439 13.1,9 12,9" id="Fill-5" fill="#FFFFFF"></path>
                    <path d="M13,20 L11,20 C10.448,20 10,19.553 10,19 C10,18.447 10.448,18 11,18 L13,18 C13.552,18 14,18.447 14,19 C14,19.553 13.552,20 13,20" id="Fill-7" fill="#FFFFFF"></path>
                    <path d="M12,6 C11.45,6 11,5.55 11,5 L11,4 C11,3.45 11.45,3 12,3 C12.55,3 13,3.45 13,4 L13,5 C13,5.55 12.55,6 12,6" id="Fill-9" fill="#FFFFFF"></path>
                    <path d="M15.9395,7.5605 C15.5505,7.1715 15.5505,6.5355 15.9395,6.1465 L16.6465,5.4395 C17.0355,5.0505 17.6715,5.0505 18.0605,5.4395 C18.4495,5.8285 18.4495,6.4645 18.0605,6.8535 L17.3535,7.5605 C16.9645,7.9495 16.3285,7.9495 15.9395,7.5605" id="Fill-11" fill="#FFFFFF"></path>
                    <path d="M8.0605,7.5605 C7.6715,7.9495 7.0355,7.9495 6.6465,7.5605 L5.9395,6.8535 C5.5505,6.4645 5.5505,5.8285 5.9395,5.4395 C6.3285,5.0505 6.9645,5.0505 7.3535,5.4395 L8.0605,6.1465 C8.4495,6.5355 8.4495,7.1715 8.0605,7.5605" id="Fill-13" fill="#FFFFFF"></path>
                </g>
            </g>
        </g>
    </g>
</svg>