<?xml version="1.0" encoding="UTF-8"?>
<svg width="20px" height="24px" viewBox="0 0 20 24" version="1.1" xmlns="http://www.w3.org/2000/svg" xmlns:xlink="http://www.w3.org/1999/xlink">
    <!-- Generator: Sketch 51.1 (57501) - http://www.bohemiancoding.com/sketch -->
    <title>Group 3</title>
    <desc>Created with Sketch.</desc>
    <defs></defs>
    <g id="phone" stroke="none" stroke-width="1" fill="none" fill-rule="evenodd">
        <g id="iPhone-8-navigation" transform="translate(-29.000000, -237.000000)" fill="#284B91">
            <g id="Group" transform="translate(29.000000, 236.000000)">
                <g id="Group-3" transform="translate(0.000000, 1.000000)">
                    <g id="Fill-1">
                        <path d="M18.93,7.889 L1.406,0.087 C1.404,0.086 1.402,0.086 1.4,0.085 C1.384,0.078 1.366,0.077 1.349,0.071 C1.247,0.033 1.145,0.013 1.044,0.009 C1.029,0.008 1.016,0 1,0 C0.989,0 0.979,0.006 0.968,0.006 C0.853,0.01 0.742,0.032 0.637,0.074 C0.612,0.083 0.591,0.096 0.568,0.108 C0.482,0.15 0.402,0.202 0.331,0.267 C0.316,0.282 0.298,0.292 0.283,0.308 C0.207,0.385 0.148,0.478 0.101,0.577 C0.089,0.604 0.079,0.628 0.07,0.656 C0.031,0.759 0.004,0.868 0.002,0.989 C0.002,0.993 0,0.995 0,1 L0,23 C0,23.552 0.448,24 1,24 C1.552,24 2,23.552 2,23 L2,18.662 L18.93,11.113 C20.353,10.478 20.353,8.523 18.93,7.889"></path>
                    </g>
                </g>
            </g>
        </g>
    </g>
</svg>