<svg xmlns="http://www.w3.org/2000/svg" viewBox="0 0 621.5 293"><path d="M177.53 207.23l-138.1 14.51c-7.81.82-14.81-4.85-15.63-12.66L6.39 43.43c-.82-7.81 4.85-14.81 12.66-15.63l138.09-14.51c7.81-.82 14.81 4.85 15.63 12.66l17.41 165.66c.83 7.8-4.84 14.8-12.65 15.62" fill="#7ca0d4"/><path fill="#e9effa" d="M30.438 222.692l159.906-16.803 3.51 33.406-159.906 16.802z"/><path d="M156.92 10.02L20.05 24.41c-7.74.81-13.35 7.8-12.53 15.62l1.12 10.64c12.78 88.6 87.32 153.55 172.86 152.19 5.47-2.41 9.01-8.19 8.34-14.5L172.43 22.69c-.82-7.81-7.76-13.48-15.51-12.67" fill="#acd7f5"/><path d="M65.33 224.65l6.16 58.65c1.25-1.62 2.63-2.97 4.13-4 1.83-1.27 3.82-2.05 5.95-2.27 2.14-.23 4.27.13 6.34 1 1.68.7 3.31 1.74 4.88 3.08h.01l-6.17-58.7-21.3 2.24z" fill="#e7342e"/><path d="M388.71 159.49c1.04-3.33 3-6.05 5.87-8.18 2.87-2.12 6.07-3.18 9.6-3.18 3.59 0 6.71 1.06 9.35 3.18 2.64 2.12 4.4 4.85 5.29 8.18h-30.11zm-9.77-4.8c-1.39 3.26-2.08 6.72-2.08 10.38 0 3.66.69 7.11 2.06 10.35 1.37 3.25 3.26 6.06 5.68 8.44 2.41 2.38 5.39 4.27 8.91 5.65 3.52 1.39 7.34 2.08 11.45 2.08 7.6 0 14.1-2.14 19.48-6.41 2.02-1.73 2.01-3.57-.05-5.53l-1.91-1.81c-1.7-1.57-3.54-1.58-5.53-.05-3.75 2.81-7.85 4.21-12.29 4.21-4.18 0-7.79-1.25-10.84-3.75s-4.9-5.69-5.56-9.57h38.09c1.24 0 2.23-.31 2.96-.93.74-.62 1.12-1.52 1.15-2.69.03-.23.05-.55.05-.98 0-4.63-1.11-8.89-3.33-12.78-2.22-3.88-5.35-6.98-9.4-9.3-4.05-2.32-8.58-3.48-13.61-3.48-3.85 0-7.47.69-10.87 2.08-3.39 1.39-6.29 3.26-8.69 5.63-2.39 2.39-4.28 5.2-5.67 8.46m-20.09-28.96v60.79c0 2.61 1.3 3.92 3.92 3.92h3.33c2.61 0 3.92-1.31 3.92-3.92v-60.79c0-2.61-1.3-3.92-3.92-3.92h-3.33c-2.62 0-3.92 1.31-3.92 3.92m-177.77-80.5c-.34-3.26-3.28-5.64-6.54-5.29-3.26.34-5.64 3.28-5.29 6.54a5.943 5.943 0 0 0 6.54 5.29c3.26-.35 5.64-3.28 5.29-6.54m4.86 188.44l-91.15 9.58a5.98 5.98 0 0 0-4 2.17c-.98 1.22-1.46 2.81-1.29 4.36l2.55 24.26c-7.12-1.23-14.63-.44-21.3 2.21l-2.55-24.24a6.002 6.002 0 0 0-2.17-4 5.94 5.94 0 0 0-4.36-1.29l-16.59 1.74c-2.86.29-5.67-.54-7.91-2.35a10.741 10.741 0 0 1-3.94-7.25c-.62-5.91 3.69-11.23 9.6-11.85.05 0 .1-.01.14-.02l140.78-14.8c-.64 3.61-.78 7.3-.39 10.99.37 3.61 1.24 7.14 2.58 10.49m11.79 6.04c.77-1.55 1.11-3.49.91-5.2-.25-1.98-.83-3.31-1.22-4.2-.11-.26-.2-.47-.28-.67a27.532 27.532 0 0 1-1.96-7.69c-.28-2.7-.17-5.4.34-8.03.39-2.04 1.02-4.04 1.87-5.93.42-.94.59-2.02.49-3.05l-.02-.2v-.01-.01L184.19 74.8c-.34-3.26-3.28-5.64-6.54-5.29-3.26.34-5.64 3.28-5.29 6.54l13.03 124.02-143.82 15.11c-.06.01-.11.01-.17.02-3.82.43-7.31 1.79-10.28 3.83L13.96 55.67c-.76-7.28 1.36-14.42 5.98-20.11 4.63-5.7 11.21-9.25 18.52-10.03l116.48-12.24c2.21-.23 4.41.22 6.35 1.31 1.9 1.06 3.42 2.65 4.39 4.59 1.1 2.2 3.49 3.5 5.94 3.24.71-.07 1.4-.28 2.05-.6a5.892 5.892 0 0 0 2.98-3.44c.5-1.51.38-3.12-.33-4.54a22.558 22.558 0 0 0-9.24-9.64 22.699 22.699 0 0 0-13.4-2.74L37.22 13.7a39.25 39.25 0 0 0-14.93 4.67 39.39 39.39 0 0 0-11.58 9.69 39.092 39.092 0 0 0-7.1 13.31 39.027 39.027 0 0 0-1.48 15.55l19.26 183.2c.63 6.03 3.58 11.45 8.28 15.26 4.71 3.81 10.62 5.56 16.65 4.93L57 259.19l2.85 27.16a5.97 5.97 0 0 0 3.49 4.81c1.9.85 4.22.61 5.9-.61 1.7-1.23 3.54-2.26 5.48-3.05l.02-.01c4.88-2.04 10.46-2.62 15.71-1.63l.02.01c2.04.38 4.07 1.01 6.01 1.87.95.42 1.99.58 3.03.47h.01c1.56-.16 3.01-.96 4-2.17.98-1.22 1.46-2.8 1.29-4.36l-2.86-27.21 89.22-9.38c1.1-.11 2.13-.53 3-1.19 1.63-1.26 2.79-2.63 3.56-4.19M62.36 108.7a5.424 5.424 0 1 1 10.79-1.13 5.937 5.937 0 0 0 6.54 5.29 5.937 5.937 0 0 0 5.29-6.54c-1-9.5-9.54-16.41-19.04-15.42-9.5 1-16.41 9.54-15.42 19.04a5.937 5.937 0 0 0 6.54 5.29c3.28-.34 5.65-3.27 5.3-6.53m38.46 14.94c-12.14 1.28-22.38-1.38-21.37 8.22 1.01 9.59 11.67 16.33 23.81 15.06 12.14-1.28 21.17-10.09 20.16-19.68-1-9.6-10.46-4.88-22.6-3.6m12.32-20.28a5.937 5.937 0 0 0 6.54 5.29 5.937 5.937 0 0 0 5.29-6.54 5.424 5.424 0 1 1 10.79-1.13 5.937 5.937 0 0 0 6.54 5.29 5.937 5.937 0 0 0 5.29-6.54c-1-9.5-9.54-16.41-19.04-15.42-9.49 1.01-16.41 9.55-15.41 19.05m106.14 36.35h-3.3c-1.4 0-2.39.42-2.97 1.25-.58.83-.61 1.92-.09 3.25l16.2 43.13c.74 2.06 2.21 3.08 4.43 3.08h4.81c2.21 0 3.69-1.06 4.43-3.18l16.2-43.13c.52-1.31.49-2.38-.1-3.19-.59-.82-1.6-1.22-3.03-1.22h-3.37c-2.18 0-3.66 1.02-4.44 3.05l-12.24 33.27-12.17-33.1c-.77-2.13-2.23-3.21-4.36-3.21m41.19-63.67h-30.11c1.04-3.33 3-6.05 5.87-8.17s6.07-3.18 9.6-3.18c3.59 0 6.71 1.06 9.35 3.18 2.64 2.12 4.41 4.84 5.29 8.17m11.65 5.58c.03-.23.05-.55.05-.98 0-4.63-1.11-8.89-3.33-12.78-2.22-3.88-5.35-6.98-9.4-9.3-4.05-2.32-8.58-3.48-13.61-3.48-3.85 0-7.47.69-10.87 2.08-3.39 1.39-6.29 3.26-8.69 5.63-2.4 2.37-4.29 5.18-5.68 8.44-1.39 3.26-2.08 6.72-2.08 10.38s.68 7.11 2.06 10.35c1.37 3.25 3.26 6.06 5.68 8.45 2.42 2.38 5.38 4.27 8.91 5.65 3.53 1.39 7.34 2.08 11.46 2.08 7.6 0 14.1-2.14 19.48-6.41 2.02-1.73 2.01-3.57-.05-5.53l-1.91-1.81c-1.7-1.57-3.54-1.58-5.53-.05-3.75 2.81-7.85 4.21-12.29 4.21-4.18 0-7.79-1.25-10.84-3.74-3.05-2.5-4.9-5.69-5.56-9.57h38.09c1.24 0 2.23-.31 2.96-.93.73-.62 1.12-1.52 1.15-2.69m4.49 71.7c3.2-3.2 7.11-4.8 11.75-4.8s8.55 1.6 11.75 4.8 4.8 7.12 4.8 11.75-1.6 8.55-4.8 11.75c-3.2 3.2-7.11 4.8-11.75 4.8s-8.55-1.6-11.75-4.8c-3.2-3.2-4.8-7.11-4.8-11.75 0-4.63 1.6-8.55 4.8-11.75m11.75-14.78c-5.25 0-10.02 1.18-14.29 3.52-4.27 2.35-7.61 5.56-10.01 9.62-2.4 4.06-3.6 8.53-3.6 13.39 0 4.86 1.2 9.33 3.6 13.39 2.4 4.06 5.74 7.27 10.01 9.62 4.27 2.35 9.04 3.53 14.29 3.53s10.02-1.18 14.3-3.53c4.27-2.35 7.61-5.56 10.01-9.62 2.4-4.06 3.6-8.53 3.6-13.39 0-4.86-1.2-9.32-3.6-13.39-2.4-4.06-5.74-7.27-10.01-9.62-4.29-2.35-9.05-3.52-14.3-3.52m-2.09-31.56c2.61 0 3.91-1.3 3.91-3.92V60.18c0-2.61-1.3-3.92-3.91-3.92h-3.33c-2.61 0-3.92 1.31-3.92 3.92v42.88c0 2.61 1.31 3.92 3.92 3.92h3.33zm3.28-59.58c1.34-1.34 2.01-2.99 2.01-4.95s-.67-3.61-2.01-4.94c-1.34-1.34-2.99-2.01-4.94-2.01s-3.61.67-4.94 2.01c-1.34 1.34-2.01 2.98-2.01 4.94 0 1.96.67 3.61 2.01 4.95 1.34 1.34 2.99 2.01 4.94 2.01s3.6-.67 4.94-2.01m57.91 55.66V76.23c0-6.33-1.91-11.44-5.73-15.32-3.82-3.88-8.79-5.82-14.93-5.82-2.81 0-5.56.64-8.25 1.93-2.69 1.29-5 2.99-6.93 5.12v-1.96c0-2.61-1.31-3.92-3.92-3.92h-3.33c-2.61 0-3.92 1.31-3.92 3.92v42.88c0 2.61 1.31 3.92 3.92 3.92h3.33c2.61 0 3.92-1.3 3.92-3.92V73.3c1.5-2.25 3.44-4.19 5.83-5.8 2.38-1.62 4.78-2.42 7.2-2.42 3.46 0 6.27 1.09 8.42 3.28 2.15 2.19 3.23 5.01 3.23 8.47v26.24c0 2.61 1.3 3.92 3.92 3.92h3.33c2.6-.01 3.91-1.32 3.91-3.93m2.43 35.53c-.29-.03-.7-.05-1.22-.05-5.61 0-10.57 2.55-14.88 7.64v-2.55c0-2.61-1.31-3.92-3.92-3.92h-3.33c-2.61 0-3.92 1.31-3.92 3.92v42.88c0 2.61 1.3 3.92 3.92 3.92h3.33c2.61 0 3.92-1.31 3.92-3.92v-28.59c1.6-2.9 3.57-5.2 5.9-6.88s4.84-2.52 7.51-2.52c.49 0 .86.02 1.13.05 1.37.1 2.42-.1 3.16-.59s1.17-1.37 1.3-2.64l.2-2.3c.1-1.24-.11-2.26-.61-3.06-.52-.8-1.35-1.26-2.49-1.39m33.3-76.45v-1.96c0-2.61-1.31-3.92-3.92-3.92h-9.5v-2.74c0-2.9.69-5 2.06-6.29s3.69-1.93 6.95-1.93c.95 0 1.68.02 2.2.05.72.03 1.27-.29 1.64-.96.38-.67.56-1.64.56-2.91v-1.86c0-1.24-.32-2.22-.95-2.94-.64-.72-1.56-1.09-2.77-1.13-.36-.03-.91-.05-1.67-.05-6.62 0-11.48 1.44-14.56 4.31-3.08 2.87-4.63 7.41-4.63 13.61v2.84h-4.11c-2.61 0-3.92 1.31-3.92 3.92v1.96c0 2.61 1.3 3.92 3.92 3.92h4.11v37.01c0 2.61 1.3 3.92 3.92 3.92h3.33c2.61 0 3.92-1.3 3.92-3.92V66.05h9.5c2.61 0 3.92-1.3 3.92-3.91m43.47 26.92c-1.34 2.77-3.34 4.99-6 6.63-2.66 1.65-5.62 2.47-8.89 2.47-4.63 0-8.55-1.6-11.75-4.8-3.2-3.2-4.8-7.12-4.8-11.75s1.6-8.55 4.8-11.75c3.2-3.2 7.11-4.8 11.75-4.8 3.23 0 6.18.84 8.86 2.52 2.67 1.68 4.68 3.91 6.02 6.68v14.8zm11.16 14V60.18c0-2.61-1.3-3.92-3.92-3.92h-3.33c-2.61 0-3.92 1.31-3.92 3.92v1.57c-4.44-4.44-10.05-6.66-16.84-6.66-4.9 0-9.34 1.21-13.34 3.62-4 2.42-7.1 5.65-9.3 9.69-2.2 4.05-3.3 8.45-3.3 13.22s1.1 9.17 3.3 13.22c2.2 4.05 5.3 7.28 9.3 9.69 4 2.41 8.44 3.62 13.34 3.62 6.79 0 12.4-2.22 16.84-6.66v1.57c0 2.61 1.3 3.92 3.92 3.92h3.33c2.62 0 3.92-1.31 3.92-3.92m13.84 35.48c-5.39 0-9.7 1.34-12.95 4.01-3.25 2.68-4.87 6.1-4.87 10.28 0 4.24 1.35 7.68 4.04 10.33 2.69 2.64 6.86 4.52 12.51 5.63 3.56.72 6.06 1.63 7.51 2.74 1.45 1.11 2.18 2.58 2.18 4.4 0 1.86-.78 3.34-2.35 4.43-1.57 1.09-3.69 1.64-6.36 1.64-3.72 0-7.13-1.17-10.23-3.52-2.12-1.67-3.95-1.57-5.48.29l-1.27 1.52c-1.7 2.09-1.61 3.92.25 5.48 4.7 3.88 10.54 5.83 17.52 5.83 5.88 0 10.53-1.44 13.95-4.33 3.43-2.89 5.14-6.6 5.14-11.14 0-4.34-1.39-7.82-4.16-10.43-2.77-2.61-7.13-4.52-13.07-5.73-6.01-1.21-9.01-3.53-9.01-6.95 0-1.5.71-2.69 2.13-3.57 1.42-.88 3.22-1.32 5.41-1.32 2.45 0 4.96.83 7.54 2.5 2.19 1.44 4.03 1.19 5.53-.74l1.13-1.42c.82-.98 1.18-1.97 1.1-2.96-.08-.99-.64-1.84-1.69-2.52-4.45-2.97-9.28-4.45-14.5-4.45m8.68-45.17c-3.2-3.2-4.8-7.12-4.8-11.75s1.6-8.55 4.8-11.75c3.2-3.2 7.11-4.8 11.75-4.8 3.2 0 6.4.96 9.59 2.89 2.22 1.37 4.03 1.03 5.43-1.03l1.47-2.2c1.47-2.25 1.13-4.05-1.03-5.38-4.54-2.84-9.69-4.26-15.47-4.26-5.26 0-10.02 1.17-14.29 3.52s-7.61 5.56-10.01 9.62c-2.4 4.06-3.6 8.53-3.6 13.39 0 4.86 1.2 9.33 3.6 13.39 2.4 4.06 5.74 7.27 10.01 9.62 4.27 2.35 9.04 3.52 14.29 3.52 6.4 0 12.03-1.71 16.89-5.14 1.83-1.34 1.91-3.08.24-5.24l-1.66-2.11c-1.47-1.83-3.3-2.04-5.48-.64-3.2 2.09-6.53 3.13-9.99 3.13-4.63.02-8.54-1.58-11.74-4.78m31.56 57.95c2.87-2.12 6.07-3.18 9.6-3.18 3.59 0 6.71 1.06 9.35 3.18 2.64 2.12 4.41 4.85 5.29 8.18h-30.11c1.04-3.34 3-6.06 5.87-8.18m9.6-12.78c-3.85 0-7.47.69-10.87 2.08-3.4 1.39-6.29 3.26-8.69 5.63-2.4 2.37-4.29 5.18-5.68 8.44-1.39 3.26-2.08 6.72-2.08 10.38 0 3.66.69 7.11 2.06 10.35 1.37 3.25 3.26 6.06 5.68 8.44s5.39 4.27 8.91 5.65c3.53 1.39 7.34 2.08 11.46 2.08 7.6 0 14.1-2.14 19.48-6.41 2.02-1.73 2.01-3.57-.05-5.53l-1.91-1.81c-1.7-1.57-3.54-1.58-5.53-.05-3.75 2.81-7.85 4.21-12.29 4.21-4.18 0-7.79-1.25-10.84-3.75s-4.91-5.69-5.56-9.57h38.08c1.24 0 2.23-.31 2.96-.93.73-.62 1.12-1.52 1.15-2.69.03-.23.05-.55.05-.98 0-4.63-1.11-8.89-3.33-12.78-2.22-3.88-5.35-6.98-9.4-9.3-4.04-2.3-8.58-3.46-13.6-3.46m43.23-35.48V76.23c0-6.33-1.91-11.44-5.73-15.32-3.82-3.88-8.8-5.82-14.93-5.82-2.81 0-5.56.64-8.25 1.93-2.69 1.29-5 2.99-6.93 5.12V39.42c0-2.61-1.3-3.92-3.91-3.92h-3.33c-2.61 0-3.92 1.31-3.92 3.92v63.64c0 2.61 1.3 3.92 3.92 3.92h3.33c2.61 0 3.91-1.3 3.91-3.92V73.3c1.5-2.25 3.44-4.19 5.83-5.8 2.38-1.62 4.78-2.42 7.2-2.42 3.46 0 6.27 1.09 8.42 3.28 2.15 2.19 3.23 5.01 3.23 8.47v26.24c0 2.61 1.31 3.92 3.92 3.92h3.33c2.61-.01 3.91-1.32 3.91-3.93m35.62 83.45v-26.83c0-6.33-1.91-11.44-5.73-15.32-3.82-3.88-8.8-5.82-14.93-5.82-2.81 0-5.56.65-8.25 1.93-2.69 1.29-5 3-6.93 5.12v-1.96c0-2.61-1.31-3.92-3.92-3.92h-3.33c-2.61 0-3.92 1.31-3.92 3.92v42.88c0 2.61 1.3 3.92 3.92 3.92h3.33c2.61 0 3.92-1.31 3.92-3.92v-29.76c1.5-2.25 3.44-4.18 5.83-5.8 2.38-1.62 4.78-2.42 7.2-2.42 3.46 0 6.27 1.09 8.42 3.28 2.15 2.19 3.23 5.01 3.23 8.47v26.24c0 2.61 1.3 3.92 3.92 3.92h3.33c2.6-.01 3.91-1.32 3.91-3.93m17.38-7.32c-1.39 1.39-2.08 3.11-2.08 5.16s.69 3.78 2.08 5.17c1.39 1.39 3.11 2.08 5.17 2.08s3.78-.69 5.16-2.08c1.39-1.39 2.08-3.11 2.08-5.17s-.69-3.78-2.08-5.16c-1.39-1.39-3.11-2.08-5.16-2.08-2.06 0-3.78.7-5.17 2.08m10.94-12.45v-40.92c0-2.61-1.31-3.92-3.92-3.92h-3.72c-2.61 0-3.92 1.31-3.92 3.92v40.92c0 2.61 1.3 3.92 3.92 3.92h3.72c2.62-.01 3.92-1.31 3.92-3.92" fill="#004a94"/></svg>